<svg width="22" height="23" viewBox="0 0 22 23" fill="none"
    xmlns="http://www.w3.org/2000/svg">
    <path fill-rule="evenodd" clip-rule="evenodd" d="M11.4838 19.1675C11.1827 19.0011 10.8173 19.0011 10.5162 19.1675L5.38587 22.0035C4.6553 22.4073 3.78073 21.7912 3.91512 20.9673L4.91875 14.8146C4.96985 14.5013 4.8692 14.1824 4.64755 13.9552L0.359077 9.55989C-0.209334 8.97731 0.119203 7.99594 0.9238 7.87301L6.76432 6.98066C7.09397 6.93029 7.37683 6.71891 7.51852 6.41703L10.0948 0.928369C10.4547 0.161565 11.5453 0.161565 11.9052 0.928369L14.4815 6.41703C14.6232 6.71891 14.906 6.93029 15.2357 6.98066L21.0762 7.87301C21.8808 7.99594 22.2093 8.97731 21.6409 9.55989L17.3525 13.9552C17.1308 14.1824 17.0302 14.5013 17.0813 14.8146L18.0849 20.9673C18.2193 21.7912 17.3447 22.4073 16.6141 22.0035L11.4838 19.1675Z" fill="#FFD03E" />
</svg>